# xmcd
#
# Track frame offsets:
#	150
#	24927
#	39549
#	55820
#	76004
#	90083
#	104521
#	120503
#	136246
#	154562
#
# Disc length: 2274 seconds
#
# Revision: 0
# Processed by: cddbd v1.5.2PL0 Copyright (c) Steve Scherf et al.
# Submitted via: dBpowerAMP V4.0
#
DISCID=6508e00a
DTITLE=Cheryl Porter - Mina in black 2
DYEAR=2008
DGENRE=Gospel
TTITLE0=01-E penso a te
TTITLE1=02-Cartoline
TTITLE2=03-Grande grande grande
TTITLE3=04-E se domani
TTITLE4=05-Se telefonando
TTITLE5=06-tintarella di luna
TTITLE6=07-Il cielo in una stanza
TTITLE7=08-La banda
TTITLE8=09-Se stasera sono qui
TTITLE9=10-I love you then I hate you
EXTD=
EXTT0=
EXTT1=
EXTT2=
EXTT3=
EXTT4=
EXTT5=
EXTT6=
EXTT7=
EXTT8=
EXTT9=
PLAYORDER=
